<?xml version="1.0" encoding="UTF-8"?>
<svg id="Lager_2" data-name="Lager 2" xmlns="http://www.w3.org/2000/svg" viewBox="0 0 7110.52 1099.75">
  <defs>
    <style>
      .cls-1 {
        fill: none;
        stroke: #000;
        stroke-linecap: round;
        stroke-linejoin: round;
        stroke-width: 13px;
      }
    </style>
  </defs>
  <g id="Lager_1-2" data-name="Lager 1">
    <path class="cls-1" d="M3600.69,464.21c-58.68-81.29-121.89-267.83-22.27-362.67,104.41-99.41,343.35-119.81,566.54-66.01,175.13,42.2,368.25,141.57,497.76,265.04,305.51,291.26,218.96,656.69-331.13,569.53-239.13-37.29-561.48-182.71-710.9-405.88h0ZM4668.48,811.46c35.55-199.17-314.84-616-828.96-612.78-179.28,1.12-274.68,77.21-213.85,264.32-151.83-325.97,4.27-431.4,325.84-426.81,410.66,40.52,751.79,281.02,822.92,511.59,49.2,205.35-98.15,286.61-246.31,305.48-278.19,16.54-554.47-90.57-785.18-260.77,37.03-107.41,17.99-267.1-61.7-344.59,36.31,91.29,13.15,171.94-44.7,224.95,45.22-67.7,58.12-166.32,13.38-219.25M6.5,714.06c134.11,5.67,912.46,4.55,986.17,4.55,57.98,0,216.48,8.52,252-40.91,40.45-56.28-53.73-61.85-55.62-12.89-9.2,238.93,421.79-137.27,521.65,52.59,62.36,118.57-113.52,131.87-99.25,20.87,20.87-162.33,261.47-200.79,338.18-44.27,72.08,147.06-127.9,162.27-117.5,49.9,21.46-231.87,356.7-155.76,489.01,2.07-168.83-296.6,294.65-645.55,1096.13-436.6-58.04,198.19,9.86,371.53,148.34,478.28-136.33,63.59-287.1,100.87-438.62,116.86-72.2,8.19-193.52-31.78-270.04-113.1-61.57-68.07,22.04-127.76,77.82-51.86,64.18-88.03,157.42-1.76,51.27,79.91-48.26,37.41-103.77,62.17-151.01,64.23-63.67,5.66-76.36-50.09-19.24-60.07,70.62-12.14,127.44,67.08,205.42,82.12,99.08,19.11,73.57-101.59-6.81-73.16-74.9,26.49-154.81,79.66-235.5,72.96-133.06-12.99-257.75-40.76-363.37-79.4-275.24-100.71-338.47-421.62-173.14-583.11-215.07,283.27,637.18,537.46,1161.57,321.88-716.37,196.45-1576.11-185.46-956.54-453.95,302.1-130.92,844.91-112.73,1102.38,19.39-56.62,42.88-96.39,108.8-117.24,183-31.45,111.94-19.84,242.73,41.95,341.72,101.57,149.85,252.97,261.5,419.1,334.35,31.55,13.16,69.53,19.33,100.02,19.35,61.28.04,116.09-11.5,146.26-9.02,81.35,10.12,45.59,86.31-18.99,58.61-69.05-23.32-111.98-112.7-170.42-118.09-52.63-4.23-49.73,36.97,13.01,47.92,51.57,7.83,127.08,2.83,171.25-28.28,69.73-49.11,12.45-117.49-56.35-66.11-34-85.05-131.29-41.03-71.23,43.86,51.58,72.92,143.05,132.12,230.49,146.65,110.53,14.1,217.94,11.52,312.04-7.63,147.67-30.06,233.98-238.91,262.66-378.85,283.77,22.38,452.64-55.63,466.01-200.06,10.4-112.37-189.58-97.16-117.5,49.9,76.71,156.52,317.31,118.06,338.18-44.27,14.27-111-161.62-97.7-99.25,20.87,99.86,189.87,530.86-186.34,521.65,52.59-1.88,48.96-96.06,43.39-55.62-12.89,35.52-49.43,194.02-40.91,252-40.91,73.71,0,852.06-1.12,986.17,4.55"/>
  </g>
</svg>