<svg width="24" height="24" viewBox="0 0 24 24" fill="none" xmlns="http://www.w3.org/2000/svg">
<path d="M21.9609 12C21.9609 16.9561 18.3414 21.0666 13.6016 21.8327V14.9297H15.8926H15.9261L15.9312 14.8965L16.3745 12.0059L16.3814 11.9609H16.3359H13.6016V10.1242C13.6016 9.73447 13.6971 9.35444 13.941 9.07234C14.1841 8.7913 14.5795 8.60156 15.1922 8.60156H16.4531H16.4922V8.5625V6.10156V6.0686L16.4597 6.06306L16.4531 6.10156L16.4597 6.06305L16.4596 6.06305L16.4595 6.06302L16.4588 6.06291L16.4563 6.06248L16.4464 6.06083L16.408 6.0546C16.3744 6.04923 16.3253 6.04158 16.2629 6.0324C16.1382 6.01404 15.9606 5.98957 15.7487 5.9651C15.325 5.91619 14.7638 5.86719 14.2147 5.86719C13.0647 5.86719 12.1096 6.21582 11.4419 6.88411C10.7742 7.55244 10.3984 8.53595 10.3984 9.79688V11.9609H7.89844H7.85938V12V14.8906V14.9297H7.89844H10.3984V21.8327C5.65865 21.0666 2.03906 16.956 2.03906 12C2.03906 6.49876 6.49876 2.03906 12 2.03906C17.5012 2.03906 21.9609 6.49876 21.9609 12Z" fill="#1877F2" stroke="#283333" stroke-width="0.078125"/>
<path d="M15.8926 14.8906L16.3359 12H13.5625V10.1242C13.5625 9.33328 13.9499 8.5625 15.1922 8.5625H16.4531V6.10156C16.4531 6.10156 15.3088 5.90625 14.2146 5.90625C11.9305 5.90625 10.4375 7.29063 10.4375 9.79688V12H7.89844V14.8906H10.4375V21.8785C10.9544 21.9595 11.4768 22.0001 12 22C12.5232 22.0001 13.0456 21.9595 13.5625 21.8785V14.8906H15.8926Z" fill="white"/>
</svg>
