<svg width="24" height="24" viewBox="0 0 24 24" fill="none" xmlns="http://www.w3.org/2000/svg">
<path d="M17.4578 13.8098H12.0039V10.1878H21.292C21.4304 10.7942 21.4946 11.3831 21.4946 12.1871C21.4946 15.2049 20.4177 17.7475 18.5519 19.4777L18.3749 19.46L15.4429 17.1886L15.4557 17.1031C16.785 16.1662 17.3843 14.7781 17.4957 13.8525L17.5009 13.8098H17.4578Z" fill="#4285F4" stroke="#283333" stroke-width="0.0763359"/>
<path d="M11.9657 21.9313C14.6563 21.9313 16.9152 21.0454 18.5651 19.5174L15.4204 17.0813C14.5789 17.6682 13.4494 18.0779 11.9657 18.0779C9.33032 18.0779 7.0936 16.3395 6.29627 13.9366L6.1794 13.9466L3.10322 16.3273L3.06299 16.4391C4.70177 19.6945 8.06795 21.9313 11.9657 21.9313Z" fill="#34A853"/>
<path d="M6.29626 13.9366C6.08588 13.3165 5.96412 12.6521 5.96412 11.9656C5.96412 11.279 6.08588 10.6147 6.28519 9.9946L6.27962 9.86254L3.16489 7.4436L3.06298 7.49208C2.38756 8.84299 2 10.36 2 11.9656C2 13.5712 2.38756 15.0881 3.06298 16.439L6.29626 13.9366Z" fill="#FBBC05"/>
<path d="M11.9657 5.85336C13.837 5.85336 15.0992 6.66168 15.819 7.33718L18.6315 4.59107C16.9042 2.9855 14.6563 2 11.9657 2C8.06795 2 4.70177 4.23672 3.06299 7.49214L6.2852 9.99466C7.0936 7.59183 9.33032 5.85336 11.9657 5.85336Z" fill="#EB4335"/>
</svg>
