<svg width="172" height="29" viewBox="0 0 172 29" fill="none" xmlns="http://www.w3.org/2000/svg">
<path d="M169.136 22.24C168.516 22.24 168.006 22.04 167.606 21.64C167.206 21.24 167.006 20.73 167.006 20.11C167.006 19.51 167.206 19.01 167.606 18.61C168.006 18.21 168.526 18.01 169.166 18.01C169.826 18.01 170.346 18.21 170.726 18.61C171.126 19.01 171.326 19.52 171.326 20.14C171.326 20.74 171.126 21.24 170.726 21.64C170.346 22.04 169.816 22.24 169.136 22.24Z" fill="#283333"/>
<path d="M153.951 26.62C154.491 26.62 154.951 26.51 155.331 26.29C155.711 26.07 156.031 25.76 156.291 25.36C156.551 24.96 156.811 24.49 157.071 23.95L158.631 20.56L158.901 20.08L163.941 8.17002H161.031V6.58002H167.721V8.17002H166.161L159.771 22.93C159.331 23.99 158.861 24.91 158.361 25.69C157.861 26.49 157.251 27.1 156.531 27.52C155.831 27.96 154.951 28.18 153.891 28.18L153.951 26.62ZM158.391 23.74L151.671 8.17002H150.111V6.58002H157.881V8.17002H155.001L159.891 20.11L158.391 23.74ZM152.091 23.98C152.531 23.98 152.911 24.08 153.231 24.28C153.551 24.5 153.711 24.82 153.711 25.24C153.711 25.74 153.521 26.09 153.141 26.29C152.781 26.49 152.371 26.59 151.911 26.59L151.941 25.75C152.101 26.03 152.351 26.24 152.691 26.38C153.031 26.54 153.451 26.62 153.951 26.62L153.891 28.18C152.831 28.18 151.941 27.93 151.221 27.43C150.521 26.93 150.171 26.3 150.171 25.54C150.191 25.06 150.371 24.68 150.711 24.4C151.071 24.12 151.531 23.98 152.091 23.98Z" fill="#283333"/>
<path d="M141.969 22V20.44H144.549V2.11002H142.209V0.52002H147.639V20.44H149.979V22H141.969Z" fill="#283333"/>
<path d="M126.848 22V20.44H129.518V8.16997H127.088V6.57997H132.218V11.74L132.578 11.68V20.44H136.238V22H126.848ZM131.558 12.64C131.578 11.12 131.838 9.88997 132.338 8.94997C132.838 7.98997 133.518 7.28997 134.378 6.84997C135.238 6.38997 136.208 6.15997 137.288 6.15997C138.468 6.15997 139.408 6.44997 140.108 7.02997C140.828 7.58997 141.188 8.36997 141.188 9.36997C141.188 10.01 141.008 10.53 140.648 10.93C140.288 11.33 139.808 11.53 139.208 11.53C138.688 11.53 138.268 11.38 137.948 11.08C137.628 10.78 137.468 10.41 137.468 9.96997C137.468 9.42997 137.658 9.01997 138.038 8.73997C138.438 8.45997 139.008 8.33997 139.748 8.37997L139.508 9.42997C139.468 8.84997 139.208 8.39997 138.728 8.07997C138.268 7.75997 137.658 7.60997 136.898 7.62997C136.098 7.62997 135.368 7.81997 134.708 8.19997C134.068 8.55997 133.548 9.11997 133.148 9.87997C132.768 10.62 132.578 11.54 132.578 12.64H131.558Z" fill="#283333"/>
<path d="M117.595 22.36C116.055 22.36 114.705 22.05 113.545 21.43C112.405 20.81 111.505 19.9 110.845 18.7C110.205 17.48 109.885 16.01 109.885 14.29C109.885 12.55 110.205 11.09 110.845 9.90997C111.505 8.70997 112.405 7.79997 113.545 7.17997C114.685 6.53997 116.015 6.21997 117.535 6.21997L117.625 7.92997C116.645 7.92997 115.795 8.15997 115.075 8.61997C114.375 9.07997 113.835 9.76997 113.455 10.69C113.095 11.59 112.915 12.73 112.915 14.11C112.915 15.93 113.375 17.38 114.295 18.46C115.215 19.52 116.475 20.05 118.075 20.05C119.075 20.05 119.885 19.89 120.505 19.57C121.125 19.23 121.605 18.82 121.945 18.34C122.305 17.84 122.565 17.35 122.725 16.87H124.675C124.615 17.49 124.425 18.13 124.105 18.79C123.785 19.45 123.335 20.05 122.755 20.59C122.195 21.11 121.485 21.54 120.625 21.88C119.785 22.2 118.775 22.36 117.595 22.36ZM111.325 14.2V12.55H121.885L124.915 13.36V14.2H111.325ZM121.885 12.55C121.865 11.69 121.695 10.91 121.375 10.21C121.055 9.50997 120.575 8.95997 119.935 8.55997C119.315 8.13997 118.545 7.92997 117.625 7.92997L117.535 6.21997C119.135 6.21997 120.485 6.51997 121.585 7.11997C122.685 7.71997 123.515 8.55997 124.075 9.63997C124.635 10.7 124.915 11.94 124.915 13.36L121.885 12.55Z" fill="#283333"/>
<path d="M90.0303 22V20.44H92.6103V2.11002H90.2703V0.52002H95.7003V20.44H97.9503V22H90.0303ZM100.92 22V20.44H103.17V11.65C103.17 10.55 102.87 9.75002 102.27 9.25002C101.69 8.75002 100.9 8.50002 99.9003 8.50002C99.1803 8.50002 98.4903 8.67002 97.8303 9.01002C97.1903 9.35002 96.6703 9.88002 96.2703 10.6C95.8903 11.3 95.7003 12.23 95.7003 13.39L95.1903 13.42C95.1903 11.82 95.4103 10.5 95.8503 9.46002C96.2903 8.42002 96.9503 7.65002 97.8303 7.15002C98.7103 6.63002 99.8003 6.37002 101.1 6.37002C102.62 6.37002 103.85 6.78002 104.79 7.60002C105.75 8.40002 106.23 9.72002 106.23 11.56V20.44H108.45V22H100.92Z" fill="#283333"/>
<path d="M83.1906 22.33C81.4106 22.33 80.0906 21.79 79.2306 20.71C78.3906 19.61 78.0106 18.11 78.0906 16.21L78.3306 8.40997H74.1306V6.69997H75.5106C76.4106 6.69997 77.1206 6.58997 77.6406 6.36997C78.1806 6.14997 78.5606 5.80997 78.7806 5.34997C79.0006 4.86997 79.1106 4.24997 79.1106 3.48997V2.46997H81.1506V16.87C81.1506 17.83 81.3606 18.59 81.7806 19.15C82.2206 19.69 82.8706 19.96 83.7306 19.96C84.6106 19.96 85.2506 19.69 85.6506 19.15C86.0706 18.61 86.2806 17.85 86.2806 16.87V13.66H88.2606V16.84C88.2606 18.56 87.8406 19.91 87.0006 20.89C86.1806 21.85 84.9106 22.33 83.1906 22.33ZM81.1506 8.40997V6.57997H88.7706V8.40997H81.1506Z" fill="#283333"/>
<path d="M65.9495 22.36C64.4095 22.36 63.0595 22.05 61.8995 21.43C60.7595 20.81 59.8595 19.9 59.1995 18.7C58.5595 17.48 58.2395 16.01 58.2395 14.29C58.2395 12.55 58.5595 11.09 59.1995 9.90997C59.8595 8.70997 60.7595 7.79997 61.8995 7.17997C63.0395 6.53997 64.3695 6.21997 65.8895 6.21997L65.9795 7.92997C64.9995 7.92997 64.1495 8.15997 63.4295 8.61997C62.7295 9.07997 62.1895 9.76997 61.8095 10.69C61.4495 11.59 61.2695 12.73 61.2695 14.11C61.2695 15.93 61.7295 17.38 62.6495 18.46C63.5695 19.52 64.8295 20.05 66.4295 20.05C67.4295 20.05 68.2395 19.89 68.8595 19.57C69.4795 19.23 69.9595 18.82 70.2995 18.34C70.6595 17.84 70.9195 17.35 71.0795 16.87H73.0295C72.9695 17.49 72.7795 18.13 72.4595 18.79C72.1395 19.45 71.6895 20.05 71.1095 20.59C70.5495 21.11 69.8395 21.54 68.9795 21.88C68.1395 22.2 67.1295 22.36 65.9495 22.36ZM59.6795 14.2V12.55H70.2395L73.2695 13.36V14.2H59.6795ZM70.2395 12.55C70.2195 11.69 70.0495 10.91 69.7295 10.21C69.4095 9.50997 68.9295 8.95997 68.2895 8.55997C67.6695 8.13997 66.8995 7.92997 65.9795 7.92997L65.8895 6.21997C67.4895 6.21997 68.8395 6.51997 69.9395 7.11997C71.0395 7.71997 71.8695 8.55997 72.4295 9.63997C72.9895 10.7 73.2695 11.94 73.2695 13.36L70.2395 12.55Z" fill="#283333"/>
<path d="M46.5903 27.58C45.0303 27.58 43.8303 27.3 42.9903 26.74C42.1703 26.2 41.7603 25.4 41.7603 24.34C41.7603 23.7 41.9403 23.16 42.3003 22.72C42.6803 22.3 43.1503 21.98 43.7103 21.76C44.2703 21.52 44.8503 21.39 45.4503 21.37L45.5403 21.64C45.3403 21.76 45.1203 21.92 44.8803 22.12C44.6403 22.32 44.4403 22.55 44.2803 22.81C44.1203 23.07 44.0403 23.38 44.0403 23.74C44.0403 24.44 44.2803 24.99 44.7603 25.39C45.2403 25.81 46.0003 26.02 47.0403 26.02H51.1203C51.8403 26.02 52.4203 25.9 52.8603 25.66C53.3203 25.44 53.6503 25.15 53.8503 24.79C54.0503 24.43 54.1503 24.03 54.1503 23.59C54.1503 22.97 53.9803 22.5 53.6403 22.18C53.3203 21.88 52.8003 21.73 52.0803 21.73H45.0603C43.7603 21.73 42.7103 21.42 41.9103 20.8C41.1303 20.16 40.7403 19.32 40.7403 18.28C40.7403 17.5 40.9203 16.85 41.2803 16.33C41.6603 15.81 42.1603 15.41 42.7803 15.13C43.4203 14.85 44.1303 14.71 44.9103 14.71L44.9703 15.55C44.3903 15.59 43.9103 15.77 43.5303 16.09C43.1503 16.39 42.9603 16.83 42.9603 17.41C42.9603 17.97 43.1603 18.41 43.5603 18.73C43.9603 19.05 44.4903 19.21 45.1503 19.21H52.5303C53.9503 19.21 55.0303 19.53 55.7703 20.17C56.5103 20.79 56.8803 21.65 56.8803 22.75C56.8803 23.65 56.6603 24.46 56.2203 25.18C55.8003 25.92 55.1403 26.5 54.2403 26.92C53.3603 27.36 52.2303 27.58 50.8503 27.58H46.5903ZM48.6303 16.57C47.3303 16.57 46.1903 16.37 45.2103 15.97C44.2503 15.55 43.5003 14.96 42.9603 14.2C42.4203 13.44 42.1503 12.54 42.1503 11.5C42.1503 9.91999 42.7403 8.67999 43.9203 7.77999C45.1203 6.87999 46.7203 6.42999 48.7203 6.42999L52.4103 8.13999C53.1103 8.35999 53.7103 8.77999 54.2103 9.39999C54.7303 9.99999 54.9903 10.8 54.9903 11.8C54.9903 13.22 54.4203 14.37 53.2803 15.25C52.1603 16.13 50.6103 16.57 48.6303 16.57ZM48.6303 14.98C49.6903 14.98 50.5203 14.67 51.1203 14.05C51.7403 13.43 52.0503 12.58 52.0503 11.5C52.0503 10.44 51.7403 9.58999 51.1203 8.94999C50.5203 8.28999 49.6903 7.95999 48.6303 7.95999C47.6103 7.95999 46.7903 8.28999 46.1703 8.94999C45.5503 9.58999 45.2403 10.44 45.2403 11.5C45.2403 12.58 45.5403 13.43 46.1403 14.05C46.7603 14.67 47.5903 14.98 48.6303 14.98ZM52.4103 8.13999L48.7203 6.42999H56.7903V8.13999H52.4103Z" fill="#283333"/>
<path d="M30.5572 22.36C28.9572 22.36 27.5272 22.05 26.2672 21.43C25.0072 20.79 24.0172 19.87 23.2972 18.67C22.5772 17.45 22.2172 15.99 22.2172 14.29C22.2172 12.57 22.5772 11.11 23.2972 9.90997C24.0172 8.68997 25.0072 7.76997 26.2672 7.14997C27.5272 6.52997 28.9572 6.21997 30.5572 6.21997C32.1772 6.21997 33.6072 6.52997 34.8472 7.14997C36.1072 7.76997 37.0972 8.68997 37.8172 9.90997C38.5572 11.11 38.9272 12.57 38.9272 14.29C38.9272 15.99 38.5572 17.45 37.8172 18.67C37.0972 19.87 36.1072 20.79 34.8472 21.43C33.6072 22.05 32.1772 22.36 30.5572 22.36ZM30.5572 20.53C31.5772 20.53 32.4572 20.28 33.1972 19.78C33.9372 19.28 34.5072 18.56 34.9072 17.62C35.3272 16.66 35.5372 15.52 35.5372 14.2C35.5372 12.9 35.3272 11.8 34.9072 10.9C34.5072 9.97997 33.9372 9.27997 33.1972 8.79997C32.4572 8.29997 31.5772 8.04997 30.5572 8.04997C29.5772 8.04997 28.7072 8.29997 27.9472 8.79997C27.2072 9.27997 26.6272 9.98997 26.2072 10.93C25.7872 11.85 25.5772 12.97 25.5772 14.29C25.5772 15.61 25.7872 16.74 26.2072 17.68C26.6272 18.6 27.2072 19.31 27.9472 19.81C28.7072 20.29 29.5772 20.53 30.5572 20.53Z" fill="#283333"/>
<path d="M5.75 22V20.44H9.35V1.53998H12.53V20.44H16.13V22H5.75ZM0.559998 8.43998V3.33998H4.79C3.91 3.33998 3.3 3.52998 2.96 3.90998C2.62 4.28998 2.45 4.93998 2.45 5.85998V8.43998H0.559998ZM0.559998 3.33998V1.53998H21.29V3.33998H0.559998ZM19.43 5.85998C19.43 4.93998 19.26 4.28998 18.92 3.90998C18.58 3.52998 17.97 3.33998 17.09 3.33998H21.29V8.43998H19.43V5.85998Z" fill="#283333"/>
</svg>
