<svg width="500" height="500" viewBox="0 0 500 500" fill="none" xmlns="http://www.w3.org/2000/svg">
<rect width="500" height="500" rx="95.2381" fill="#FAD2EF"/>
<path d="M365.129 390C356.75 390 349.858 387.297 344.453 381.892C339.047 376.486 336.345 369.595 336.345 361.216C336.345 353.108 339.047 346.351 344.453 340.946C349.858 335.541 356.885 332.838 365.534 332.838C374.453 332.838 381.48 335.541 386.615 340.946C392.02 346.351 394.723 353.243 394.723 361.622C394.723 369.73 392.02 376.486 386.615 381.892C381.48 387.297 374.318 390 365.129 390Z" fill="#283333"/>
<path d="M166.885 386.487V365.406H215.534V110H258.507V365.406H307.156V386.487H166.885ZM96.7502 203.243V134.324H153.912C142.021 134.324 133.777 136.892 129.183 142.027C124.588 147.162 122.291 155.946 122.291 168.378V203.243H96.7502ZM96.7502 134.324V110H376.886V134.324H96.7502ZM351.75 168.378C351.75 155.946 349.453 147.162 344.859 142.027C340.264 136.892 332.021 134.324 320.129 134.324H376.886V203.243H351.75V168.378Z" fill="#283333"/>
</svg>
